<svg preserveAspectRatio="none" width="100%" height="100%" overflow="visible" style="display: block;" viewBox="0 0 34 36" fill="none" xmlns="http://www.w3.org/2000/svg">
<g id="Background">
<rect width="34" height="36" rx="8" fill="var(--fill-0, #B0F0D5)"/>
<path id="Icon" d="M23 28C22.1667 28 21.4583 27.7083 20.875 27.125C20.2917 26.5417 20 25.8333 20 25C20 24.9 20.025 24.6667 20.075 24.3L13.05 20.2C12.7833 20.45 12.475 20.6458 12.125 20.7875C11.775 20.9292 11.4 21 11 21C10.1667 21 9.45833 20.7083 8.875 20.125C8.29167 19.5417 8 18.8333 8 18C8 17.1667 8.29167 16.4583 8.875 15.875C9.45833 15.2917 10.1667 15 11 15C11.4 15 11.775 15.0708 12.125 15.2125C12.475 15.3542 12.7833 15.55 13.05 15.8L20.075 11.7C20.0417 11.5833 20.0208 11.4708 20.0125 11.3625C20.0042 11.2542 20 11.1333 20 11C20 10.1667 20.2917 9.45833 20.875 8.875C21.4583 8.29167 22.1667 8 23 8C23.8333 8 24.5417 8.29167 25.125 8.875C25.7083 9.45833 26 10.1667 26 11C26 11.8333 25.7083 12.5417 25.125 13.125C24.5417 13.7083 23.8333 14 23 14C22.6 14 22.225 13.9292 21.875 13.7875C21.525 13.6458 21.2167 13.45 20.95 13.2L13.925 17.3C13.9583 17.4167 13.9792 17.5292 13.9875 17.6375C13.9958 17.7458 14 17.8667 14 18C14 18.1333 13.9958 18.2542 13.9875 18.3625C13.9792 18.4708 13.9583 18.5833 13.925 18.7L20.95 22.8C21.2167 22.55 21.525 22.3542 21.875 22.2125C22.225 22.0708 22.6 22 23 22C23.8333 22 24.5417 22.2917 25.125 22.875C25.7083 23.4583 26 24.1667 26 25C26 25.8333 25.7083 26.5417 25.125 27.125C24.5417 27.7083 23.8333 28 23 28V28M23 26C23.2833 26 23.5208 25.9042 23.7125 25.7125C23.9042 25.5208 24 25.2833 24 25C24 24.7167 23.9042 24.4792 23.7125 24.2875C23.5208 24.0958 23.2833 24 23 24C22.7167 24 22.4792 24.0958 22.2875 24.2875C22.0958 24.4792 22 24.7167 22 25C22 25.2833 22.0958 25.5208 22.2875 25.7125C22.4792 25.9042 22.7167 26 23 26V26M11 19C11.2833 19 11.5208 18.9042 11.7125 18.7125C11.9042 18.5208 12 18.2833 12 18C12 17.7167 11.9042 17.4792 11.7125 17.2875C11.5208 17.0958 11.2833 17 11 17C10.7167 17 10.4792 17.0958 10.2875 17.2875C10.0958 17.4792 10 17.7167 10 18C10 18.2833 10.0958 18.5208 10.2875 18.7125C10.4792 18.9042 10.7167 19 11 19V19M23 12C23.2833 12 23.5208 11.9042 23.7125 11.7125C23.9042 11.5208 24 11.2833 24 11C24 10.7167 23.9042 10.4792 23.7125 10.2875C23.5208 10.0958 23.2833 10 23 10C22.7167 10 22.4792 10.0958 22.2875 10.2875C22.0958 10.4792 22 10.7167 22 11C22 11.2833 22.0958 11.5208 22.2875 11.7125C22.4792 11.9042 22.7167 12 23 12V12M23 25V25V25V25V25V25V25V25V25V25M11 18V18V18V18V18V18V18V18V18V18M23 11V11V11V11V11V11V11V11V11V11" fill="var(--fill-0, #326F5A)"/>
</g>
</svg>
