<svg preserveAspectRatio="none" width="100%" height="100%" overflow="visible" style="display: block;" viewBox="0 0 55.8958 55.8958" fill="none" xmlns="http://www.w3.org/2000/svg">
<g id="Container">
<path id="Icon" d="M24.1015 40.9682L43.4668 21.603L38.716 16.8145L24.1015 31.429L16.9537 24.2812L12.2029 29.0696L24.1015 40.9682V40.9682M27.9479 55.8958C24.058 55.8958 20.4157 55.1633 17.0208 53.6984C13.6259 52.2335 10.6729 50.2454 8.16162 47.7342C5.65035 45.2229 3.66226 42.2698 2.19736 38.875C0.732453 35.4801 0 31.8378 0 27.9479C0 24.058 0.732453 20.4157 2.19736 17.0208C3.66226 13.6259 5.65035 10.6729 8.16162 8.16161C10.6729 5.65035 13.6259 3.66226 17.0208 2.19736C20.4157 0.732452 24.058 0 27.9479 0C31.8378 0 35.4801 0.732452 38.875 2.19736C42.2698 3.66226 45.2229 5.65035 47.7342 8.16161C50.2454 10.6729 52.2335 13.6259 53.6984 17.0208C55.1633 20.4157 55.8958 24.058 55.8958 27.9479C55.8958 31.8378 55.1633 35.4801 53.6984 38.875C52.2335 42.2698 50.2454 45.2229 47.7342 47.7342C45.2229 50.2454 42.2698 52.2335 38.875 53.6984C35.4801 55.1633 31.8378 55.8958 27.9479 55.8958V55.8958M27.9479 48.829C33.803 48.829 38.7469 46.8126 42.7798 42.7798C46.8126 38.7469 48.829 33.803 48.829 27.9479C48.829 22.0928 46.8126 17.1489 42.7798 13.116C38.7469 9.08318 33.803 7.06676 27.9479 7.06676C22.0928 7.06676 17.1489 9.08318 13.116 13.116C9.08318 17.1489 7.06676 22.0928 7.06676 27.9479C7.06676 33.803 9.08318 38.7469 13.116 42.7798C17.1489 46.8126 22.0928 48.829 27.9479 48.829V48.829M27.9479 27.9479V27.9479V27.9479V27.9479V27.9479V27.9479V27.9479V27.9479V27.9479V27.9479" fill="var(--fill-0, #2B6954)"/>
</g>
</svg>
