<svg preserveAspectRatio="none" width="100%" height="100%" overflow="visible" style="display: block;" viewBox="0 0 17.1 17.1" fill="none" xmlns="http://www.w3.org/2000/svg">
<g id="Container">
<path id="Icon" d="M9.5 5.7V0H17.1V5.7H9.5V5.7M2.98023e-07 9.5V0H7.6V9.5H2.98023e-07V9.5M9.5 17.1V7.6H17.1V17.1H9.5V17.1M2.98023e-07 17.1V11.4H7.6V17.1H2.98023e-07V17.1M1.9 7.6H5.7V1.9H1.9V7.6V7.6M11.4 15.2H15.2V9.5H11.4V15.2V15.2M11.4 3.8H15.2V1.9H11.4V3.8V3.8M1.9 15.2H5.7V13.3H1.9V15.2V15.2M5.7 7.6V7.6V7.6V7.6V7.6V7.6M11.4 3.8V3.8V3.8V3.8V3.8V3.8M11.4 9.5V9.5V9.5V9.5V9.5V9.5M5.7 13.3V13.3V13.3V13.3V13.3V13.3" fill="var(--fill-0, #306D58)"/>
</g>
</svg>
