<svg preserveAspectRatio="none" width="100%" height="100%" overflow="visible" style="display: block;" viewBox="0 0 16.5 18.3333" fill="none" xmlns="http://www.w3.org/2000/svg">
<g id="Container">
<path id="Icon" d="M1.83333 18.3333C1.32917 18.3333 0.897569 18.1538 0.538542 17.7948C0.179514 17.4358 0 17.0042 0 16.5V3.66667C0 3.1625 0.179514 2.7309 0.538542 2.37188C0.897569 2.01285 1.32917 1.83333 1.83333 1.83333H5.68333C5.88194 1.28333 6.21424 0.840278 6.68021 0.504167C7.14618 0.168056 7.66944 0 8.25 0C8.83056 0 9.35382 0.168056 9.81979 0.504167C10.2858 0.840278 10.6181 1.28333 10.8167 1.83333H14.6667C15.1708 1.83333 15.6024 2.01285 15.9615 2.37188C16.3205 2.7309 16.5 3.1625 16.5 3.66667V16.5C16.5 17.0042 16.3205 17.4358 15.9615 17.7948C15.6024 18.1538 15.1708 18.3333 14.6667 18.3333H1.83333V18.3333M1.83333 16.5H14.6667V16.5V16.5V3.66667V3.66667V3.66667H1.83333V3.66667V3.66667V16.5V16.5V16.5V16.5M3.66667 14.6667H10.0833V12.8333H3.66667V14.6667V14.6667M3.66667 11H12.8333V9.16667H3.66667V11V11M3.66667 7.33333H12.8333V5.5H3.66667V7.33333V7.33333M8.25 2.97917C8.44861 2.97917 8.61285 2.91424 8.74271 2.78437C8.87257 2.65451 8.9375 2.49028 8.9375 2.29167C8.9375 2.09306 8.87257 1.92882 8.74271 1.79896C8.61285 1.6691 8.44861 1.60417 8.25 1.60417C8.05139 1.60417 7.88715 1.6691 7.75729 1.79896C7.62743 1.92882 7.5625 2.09306 7.5625 2.29167C7.5625 2.49028 7.62743 2.65451 7.75729 2.78437C7.88715 2.91424 8.05139 2.97917 8.25 2.97917V2.97917M1.83333 16.5V16.5V16.5V3.66667V3.66667V3.66667V3.66667V3.66667V3.66667V16.5V16.5V16.5V16.5V16.5" fill="var(--fill-0, #5A413D)"/>
</g>
</svg>
