<svg preserveAspectRatio="none" width="100%" height="100%" overflow="visible" style="display: block;" viewBox="0 0 25 25" fill="none" xmlns="http://www.w3.org/2000/svg">
<g id="Container">
<path id="Icon" d="M5 15H8.8125L15.0625 8.75C15.25 8.5625 15.3906 8.34896 15.4844 8.10938C15.5781 7.86979 15.625 7.63542 15.625 7.40625C15.625 7.17708 15.5729 6.95312 15.4688 6.73438C15.3646 6.51562 15.2292 6.3125 15.0625 6.125L13.9375 4.9375C13.75 4.75 13.5417 4.60938 13.3125 4.51562C13.0833 4.42188 12.8438 4.375 12.5938 4.375C12.3646 4.375 12.1302 4.42188 11.8906 4.51562C11.651 4.60938 11.4375 4.75 11.25 4.9375L5 11.1875V15V15M13.75 7.40625V7.40625L12.5938 6.25V6.25L13.75 7.40625V7.40625M6.875 13.125V11.9375L10.0312 8.78125L10.6562 9.34375L11.2188 9.96875L8.0625 13.125H6.875V13.125M10.6562 9.34375L11.2188 9.96875V9.96875L10.0312 8.78125V8.78125L10.6562 9.34375V9.34375M11.4688 15H20V12.5H13.9688L11.4688 15V15M0 25V2.5C0 1.8125 0.244792 1.22396 0.734375 0.734375C1.22396 0.244792 1.8125 0 2.5 0H22.5C23.1875 0 23.776 0.244792 24.2656 0.734375C24.7552 1.22396 25 1.8125 25 2.5V17.5C25 18.1875 24.7552 18.776 24.2656 19.2656C23.776 19.7552 23.1875 20 22.5 20H5L0 25V25M3.9375 17.5H22.5V17.5V17.5V2.5V2.5V2.5H2.5V2.5V2.5V18.9062L3.9375 17.5V17.5M2.5 17.5V17.5V2.5V2.5V2.5V2.5V2.5V2.5V17.5V17.5V17.5V17.5V17.5" fill="var(--fill-0, #570000)"/>
</g>
</svg>
