<svg preserveAspectRatio="none" width="100%" height="100%" overflow="visible" style="display: block;" viewBox="0 0 10.5 9.33333" fill="none" xmlns="http://www.w3.org/2000/svg">
<g id="Container">
<path id="Icon" d="M0 5.83333V4.66667H4.08333V5.83333H0V5.83333M0 3.5V2.33333H6.41667V3.5H0V3.5M0 1.16667V0H6.41667V1.16667H0V1.16667M5.25 9.33333V7.53958L8.47292 4.33125C8.56042 4.24375 8.65764 4.18056 8.76458 4.14167C8.87153 4.10278 8.97847 4.08333 9.08542 4.08333C9.20208 4.08333 9.31389 4.10521 9.42083 4.14896C9.52778 4.19271 9.625 4.25833 9.7125 4.34583L10.2521 4.88542C10.3299 4.97292 10.3906 5.07014 10.4344 5.17708C10.4781 5.28403 10.5 5.39097 10.5 5.49792C10.5 5.60486 10.4806 5.71424 10.4417 5.82604C10.4028 5.93785 10.3396 6.0375 10.2521 6.125L7.04375 9.33333H5.25V9.33333M9.625 5.49792V5.49792L9.08542 4.95833V4.95833L9.625 5.49792V5.49792M6.125 8.45833H6.67917L8.44375 6.67917L8.18125 6.40208L7.90417 6.13958L6.125 7.90417V8.45833V8.45833M8.18125 6.40208L7.90417 6.13958V6.13958L8.44375 6.67917V6.67917L8.18125 6.40208V6.40208" fill="var(--fill-0, white)"/>
</g>
</svg>
