<svg preserveAspectRatio="none" width="100%" height="100%" overflow="visible" style="display: block;" viewBox="0 0 16.5 16.5" fill="none" xmlns="http://www.w3.org/2000/svg">
<g id="Container">
<path id="Icon" d="M1.83333 14.6667H3.13958L12.1 5.70625L10.7937 4.4L1.83333 13.3604V14.6667V14.6667M0 16.5V12.6042L12.1 0.527083C12.2833 0.359028 12.4858 0.229167 12.7073 0.1375C12.9288 0.0458333 13.1618 0 13.4062 0C13.6507 0 13.8875 0.0458333 14.1167 0.1375C14.3458 0.229167 14.5444 0.366667 14.7125 0.55L15.9729 1.83333C16.1562 2.00139 16.2899 2.2 16.374 2.42917C16.458 2.65833 16.5 2.8875 16.5 3.11667C16.5 3.36111 16.458 3.5941 16.374 3.81562C16.2899 4.03715 16.1562 4.23958 15.9729 4.42292L3.89583 16.5H0V16.5M14.6667 3.11667V3.11667L13.3833 1.83333V1.83333L14.6667 3.11667V3.11667M11.4354 5.06458L10.7937 4.4V4.4L12.1 5.70625V5.70625L11.4354 5.06458V5.06458" fill="var(--fill-0, #5A413D)"/>
</g>
</svg>
