<svg preserveAspectRatio="none" width="100%" height="100%" overflow="visible" style="display: block;" viewBox="0 0 27 27" fill="none" xmlns="http://www.w3.org/2000/svg">
<g id="Container">
<path id="Icon" d="M3 27C2.175 27 1.46875 26.7062 0.88125 26.1187C0.29375 25.5312 0 24.825 0 24V3C0 2.175 0.29375 1.46875 0.88125 0.88125C1.46875 0.29375 2.175 0 3 0H16.5V3H3V3V3V24V24V24H24V24V24V10.5H27V24C27 24.825 26.7062 25.5312 26.1187 26.1187C25.5312 26.7062 24.825 27 24 27H3V27M7.5 21V18H19.5V21H7.5V21M7.5 16.5V13.5H19.5V16.5H7.5V16.5M7.5 12V9H19.5V12H7.5V12M21 9V6H18V3H21V0H24V3H27V6H24V9H21V9" fill="var(--fill-0, #57423E)"/>
</g>
</svg>
