<svg preserveAspectRatio="none" width="100%" height="100%" overflow="visible" style="display: block;" viewBox="0 0 46 41" fill="none" xmlns="http://www.w3.org/2000/svg">
<g id="Background">
<rect width="46" height="41" rx="8" fill="var(--fill-0, #ADEDD3)"/>
<path id="Icon" d="M14 29C13.45 29 12.9792 28.8042 12.5875 28.4125C12.1958 28.0208 12 27.55 12 27C12 26.45 12.1958 25.9792 12.5875 25.5875C12.9792 25.1958 13.45 25 14 25C14.1 25 14.1875 25 14.2625 25C14.3375 25 14.4167 25.0167 14.5 25.05L19.05 20.5C19.0167 20.4167 19 20.3375 19 20.2625C19 20.1875 19 20.1 19 20C19 19.45 19.1958 18.9792 19.5875 18.5875C19.9792 18.1958 20.45 18 21 18C21.55 18 22.0208 18.1958 22.4125 18.5875C22.8042 18.9792 23 19.45 23 20C23 20.0333 22.9833 20.2 22.95 20.5L25.5 23.05C25.5833 23.0167 25.6625 23 25.7375 23C25.8125 23 25.9 23 26 23C26.1 23 26.1875 23 26.2625 23C26.3375 23 26.4167 23.0167 26.5 23.05L30.05 19.5C30.0167 19.4167 30 19.3375 30 19.2625C30 19.1875 30 19.1 30 19C30 18.45 30.1958 17.9792 30.5875 17.5875C30.9792 17.1958 31.45 17 32 17C32.55 17 33.0208 17.1958 33.4125 17.5875C33.8042 17.9792 34 18.45 34 19C34 19.55 33.8042 20.0208 33.4125 20.4125C33.0208 20.8042 32.55 21 32 21C31.9 21 31.8125 21 31.7375 21C31.6625 21 31.5833 20.9833 31.5 20.95L27.95 24.5C27.9833 24.5833 28 24.6625 28 24.7375C28 24.8125 28 24.9 28 25C28 25.55 27.8042 26.0208 27.4125 26.4125C27.0208 26.8042 26.55 27 26 27C25.45 27 24.9792 26.8042 24.5875 26.4125C24.1958 26.0208 24 25.55 24 25C24 24.9 24 24.8125 24 24.7375C24 24.6625 24.0167 24.5833 24.05 24.5L21.5 21.95C21.4167 21.9833 21.3375 22 21.2625 22C21.1875 22 21.1 22 21 22C20.9667 22 20.8 21.9833 20.5 21.95L15.95 26.5C15.9833 26.5833 16 26.6625 16 26.7375C16 26.8125 16 26.9 16 27C16 27.55 15.8042 28.0208 15.4125 28.4125C15.0208 28.8042 14.55 29 14 29V29M15 18.975L14.375 17.625L13.025 17L14.375 16.375L15 15.025L15.625 16.375L16.975 17L15.625 17.625L15 18.975V18.975M26 18L25.05 15.95L23 15L25.05 14.05L26 12L26.95 14.05L29 15L26.95 15.95L26 18V18" fill="var(--fill-0, #306D58)"/>
</g>
</svg>
