<svg preserveAspectRatio="none" width="100%" height="100%" overflow="visible" style="display: block;" viewBox="0 0 26.6667 26.6667" fill="none" xmlns="http://www.w3.org/2000/svg">
<g id="Container">
<path id="Icon" d="M13.3333 26.6667C11.4889 26.6667 9.75556 26.3167 8.13333 25.6167C6.51111 24.9167 5.1 23.9667 3.9 22.7667C2.7 21.5667 1.75 20.1556 1.05 18.5333C0.35 16.9111 0 15.1778 0 13.3333H2.66667C2.66667 14.8 2.94444 16.1833 3.5 17.4833C4.05556 18.7833 4.81667 19.9167 5.78333 20.8833C6.75 21.85 7.88333 22.6167 9.18333 23.1833C10.4833 23.75 11.8667 24.0333 13.3333 24.0333C16.3111 24.0333 18.8333 23 20.9 20.9333C22.9667 18.8667 24 16.3444 24 13.3667C24 10.3889 22.9667 7.86667 20.9 5.8C18.8333 3.73333 16.3111 2.7 13.3333 2.7C11.3556 2.7 9.56111 3.18333 7.95 4.15C6.33889 5.11667 5.06667 6.4 4.13333 8H8V10.6667H0V2.66667H2.66667V5.33333C3.88889 3.71111 5.42222 2.41667 7.26667 1.45C9.11111 0.483333 11.1333 0 13.3333 0C15.1778 0 16.9111 0.35 18.5333 1.05C20.1556 1.75 21.5667 2.7 22.7667 3.9C23.9667 5.1 24.9167 6.51111 25.6167 8.13333C26.3167 9.75556 26.6667 11.4889 26.6667 13.3333C26.6667 15.1778 26.3167 16.9111 25.6167 18.5333C24.9167 20.1556 23.9667 21.5667 22.7667 22.7667C21.5667 23.9667 20.1556 24.9167 18.5333 25.6167C16.9111 26.3167 15.1778 26.6667 13.3333 26.6667V26.6667M10.6667 18.6667C10.2889 18.6667 9.97222 18.5389 9.71667 18.2833C9.46111 18.0278 9.33333 17.7111 9.33333 17.3333V13.3333C9.33333 12.9556 9.46111 12.6389 9.71667 12.3833C9.97222 12.1278 10.2889 12 10.6667 12V10.6667C10.6667 9.93333 10.9278 9.30556 11.45 8.78333C11.9722 8.26111 12.6 8 13.3333 8C14.0667 8 14.6944 8.26111 15.2167 8.78333C15.7389 9.30556 16 9.93333 16 10.6667V12C16.3778 12 16.6944 12.1278 16.95 12.3833C17.2056 12.6389 17.3333 12.9556 17.3333 13.3333V17.3333C17.3333 17.7111 17.2056 18.0278 16.95 18.2833C16.6944 18.5389 16.3778 18.6667 16 18.6667H10.6667V18.6667M12 12H14.6667V10.6667C14.6667 10.2889 14.5389 9.97222 14.2833 9.71667C14.0278 9.46111 13.7111 9.33333 13.3333 9.33333C12.9556 9.33333 12.6389 9.46111 12.3833 9.71667C12.1278 9.97222 12 10.2889 12 10.6667V12V12" fill="var(--fill-0, #852318)"/>
</g>
</svg>
